<svg width="97" height="97" viewBox="0 0 97 97" fill="none" xmlns="http://www.w3.org/2000/svg">
<path d="M64.6667 97L32.3333 85.6833L7.275 95.3833C5.4787 96.1019 3.81713 95.9007 2.29028 94.7798C0.763426 93.6589 0 92.1536 0 90.2639V14.8194C0 13.6519 0.337703 12.619 1.01311 11.7208C1.68852 10.8227 2.60822 10.1491 3.77222 9.7L32.3333 0L64.6667 11.3167L89.725 1.61667C91.5213 0.898148 93.1829 1.10113 94.7097 2.22561C96.2366 3.35009 97 4.85359 97 6.73611V82.1806C97 83.3481 96.6641 84.381 95.9923 85.2792C95.3205 86.1773 94.399 86.8509 93.2278 87.3L64.6667 97ZM59.2778 83.7972V20.7472L37.7222 13.2028V76.2528L59.2778 83.7972ZM70.0556 83.7972L86.2222 78.4083V14.55L70.0556 20.7472V83.7972ZM10.7778 82.45L26.9444 76.2528V13.2028L10.7778 18.5917V82.45Z" fill="white"/>
</svg>
